<svg width="25" height="24" viewBox="0 0 25 24" fill="none" xmlns="http://www.w3.org/2000/svg">
<path fill-rule="evenodd" clip-rule="evenodd" d="M18.1746 12.003C18.3016 12.2823 18.6984 12.2823 18.8254 12.003L20.2871 8.78713L21.5 8.23582V8C21.5 6.89543 20.6046 6 19.5 6H14.9812L13.497 6.67461C13.2177 6.80159 13.2177 7.1984 13.497 7.32539L16.7129 8.78713L18.1746 12.003ZM21.5 11.6469L20.9079 12.9495C19.9682 15.0168 17.0318 15.0168 16.0921 12.9495L14.9854 10.5146L12.5505 9.40787C11.1536 8.77292 10.7006 7.22625 11.1915 6H5.5C4.39543 6 3.5 6.89543 3.5 8V18C3.5 19.1046 4.39543 20 5.5 20H19.5C20.6046 20 21.5 19.1046 21.5 18V11.6469Z" fill="#006EFA"/>
<path d="M18.8414 12.2489C18.7082 12.542 18.2918 12.542 18.1586 12.2489L16.625 8.875L13.2511 7.34139C12.958 7.20816 12.958 6.79184 13.2511 6.65861L16.625 5.125L18.1586 1.75105C18.2918 1.45795 18.7082 1.45795 18.8414 1.75105L20.375 5.125L23.7489 6.65861C24.042 6.79184 24.042 7.20816 23.7489 7.34139L20.375 8.875L18.8414 12.2489Z" fill="#006EFA"/>
</svg>
