<svg width="180" height="120" viewBox="0 0 180 120" fill="none" xmlns="http://www.w3.org/2000/svg">
<g clip-path="url(#clip0_31_1182)">
<g clip-path="url(#clip1_31_1182)">
<path d="M22 31C22 26.5817 25.5817 23 30 23H150C154.418 23 158 26.5817 158 31V105C158 109.418 154.418 113 150 113H30C25.5817 113 22 109.418 22 105V31Z" fill="url(#paint0_linear_31_1182)"/>
<g style="mix-blend-mode:hard-light" opacity="0.8" filter="url(#filter0_f_31_1182)">
<ellipse cx="29" cy="144.5" rx="106" ry="105.5" fill="#006EFA"/>
</g>
<g style="mix-blend-mode:overlay" opacity="0.5" filter="url(#filter1_f_31_1182)">
<path d="M226 112.5C226 159.631 187.586 198 140 198C92.4143 198 54 159.631 54 112.5C54 65.3687 92.4143 27 140 27C187.586 27 226 65.3687 226 112.5Z" stroke="white" stroke-width="40"/>
</g>
</g>
<path d="M149.745 29.4892C148.785 30.9132 146.596 30.5457 146.154 28.8864L144.466 22.5518C144.342 22.0846 144.052 21.6782 143.651 21.408L138.215 17.7448C136.791 16.7853 137.158 14.5956 138.818 14.1536L145.152 12.4663C145.619 12.3418 146.026 12.0523 146.296 11.6513L149.959 6.2148C150.919 4.7908 153.108 5.15836 153.55 6.81761L155.238 13.1522C155.362 13.6195 155.652 14.0258 156.053 14.296L161.489 17.9592C162.913 18.9187 162.546 21.1084 160.886 21.5504L154.552 23.2377C154.085 23.3622 153.678 23.6517 153.408 24.0527L149.745 29.4892Z" fill="url(#paint1_linear_31_1182)"/>
<path d="M51.9972 16.3463C51.9523 17.1193 51.0183 17.48 50.4655 16.9379L47.0326 13.5715C46.8769 13.4188 46.6712 13.3277 46.4535 13.315L41.6535 13.036C40.8805 12.991 40.5198 12.057 41.062 11.5042L44.4284 8.07129C44.581 7.9156 44.6721 7.70988 44.6848 7.4922L44.9639 2.69224C45.0088 1.91926 45.9428 1.55855 46.4956 2.10067L49.9285 5.46708C50.0842 5.61975 50.2899 5.71084 50.5076 5.7235L55.3076 6.00258C56.0806 6.04752 56.4413 6.98151 55.8991 7.53434L52.5327 10.9672C52.3801 11.1229 52.289 11.3287 52.2763 11.5463L51.9972 16.3463Z" fill="url(#paint2_linear_31_1182)"/>
<path d="M167.611 57.4162C167.468 58.1771 166.495 58.4158 166.016 57.8076L164.187 55.4856C164.052 55.3143 163.859 55.1977 163.645 55.1574L160.74 54.6108C159.979 54.4677 159.741 53.4953 160.349 53.0161L162.671 51.1868C162.842 51.0518 162.959 50.8594 162.999 50.6451L163.545 47.7401C163.689 46.9791 164.661 46.7405 165.14 47.3487L166.97 49.6707C167.104 49.842 167.297 49.9586 167.511 49.9989L170.416 50.5454C171.177 50.6886 171.416 51.661 170.808 52.1402L168.486 53.9695C168.314 54.1044 168.198 54.2969 168.157 54.5112L167.611 57.4162Z" fill="url(#paint3_linear_31_1182)"/>
<path d="M13.9402 67.6615C13.7846 68.5058 12.7074 68.7744 12.1735 68.102L9.07916 64.204C8.92884 64.0146 8.71499 63.8861 8.47722 63.8423L3.58277 62.9401C2.73844 62.7845 2.46986 61.7073 3.14229 61.1735L7.04029 58.0791C7.22966 57.9288 7.35815 57.7149 7.40197 57.4772L8.30416 52.5827C8.45979 51.7384 9.537 51.4698 10.0708 52.1422L13.1652 56.0402C13.3155 56.2296 13.5294 56.3581 13.7671 56.4019L18.6616 57.3041C19.5059 57.4597 19.7745 58.5369 19.1021 59.0707L15.2041 62.1651C15.0147 62.3155 14.8862 62.5293 14.8424 62.7671L13.9402 67.6615Z" fill="url(#paint4_linear_31_1182)"/>
<path d="M85.7668 55.7748C83.5697 54.5534 80.6667 56.0164 80.6667 58.6272L80.6667 77.3729C80.6667 79.9836 83.5697 81.4467 85.7668 80.2253L102.627 70.8524C104.902 69.5876 104.902 66.4125 102.627 65.1477L85.7668 55.7748Z" fill="url(#paint5_linear_31_1182)" stroke="white" stroke-width="2"/>
</g>
<defs>
<filter id="filter0_f_31_1182" x="-89" y="27" width="236" height="235" filterUnits="userSpaceOnUse" color-interpolation-filters="sRGB">
<feFlood flood-opacity="0" result="BackgroundImageFix"/>
<feBlend mode="normal" in="SourceGraphic" in2="BackgroundImageFix" result="shape"/>
<feGaussianBlur stdDeviation="6" result="effect1_foregroundBlur_31_1182"/>
</filter>
<filter id="filter1_f_31_1182" x="14" y="-13" width="252" height="251" filterUnits="userSpaceOnUse" color-interpolation-filters="sRGB">
<feFlood flood-opacity="0" result="BackgroundImageFix"/>
<feBlend mode="normal" in="SourceGraphic" in2="BackgroundImageFix" result="shape"/>
<feGaussianBlur stdDeviation="10" result="effect1_foregroundBlur_31_1182"/>
</filter>
<linearGradient id="paint0_linear_31_1182" x1="166.5" y1="12.054" x2="11.2683" y2="20.6152" gradientUnits="userSpaceOnUse">
<stop stop-color="#FF9DFF"/>
<stop offset="1" stop-color="#B6D7FF"/>
</linearGradient>
<linearGradient id="paint1_linear_31_1182" x1="173.586" y1="2.27711" x2="134.642" y2="-4.55146" gradientUnits="userSpaceOnUse">
<stop stop-color="#FF9DFF"/>
<stop offset="1" stop-color="#006EFA"/>
</linearGradient>
<linearGradient id="paint2_linear_31_1182" x1="56.083" y1="-6.0123" x2="33.5535" y2="2.50066" gradientUnits="userSpaceOnUse">
<stop stop-color="#FF9DFF"/>
<stop offset="1" stop-color="#006EFA"/>
</linearGradient>
<linearGradient id="paint3_linear_31_1182" x1="172.626" y1="41.8925" x2="155.281" y2="46.0156" gradientUnits="userSpaceOnUse">
<stop stop-color="#FF9DFF"/>
<stop offset="1" stop-color="#006EFA"/>
</linearGradient>
<linearGradient id="paint4_linear_31_1182" x1="21.1499" y1="44.7965" x2="-3.64475" y2="50.7872" gradientUnits="userSpaceOnUse">
<stop offset="0.200152" stop-color="#FF9DFF"/>
<stop offset="1" stop-color="#006EFA"/>
</linearGradient>
<linearGradient id="paint5_linear_31_1182" x1="107.057" y1="53.4815" x2="79.424" y2="53.2948" gradientUnits="userSpaceOnUse">
<stop stop-color="#FF9DFF"/>
<stop offset="1" stop-color="#006EFA"/>
</linearGradient>
<clipPath id="clip0_31_1182">
<rect width="180" height="120" fill="white"/>
</clipPath>
<clipPath id="clip1_31_1182">
<path d="M22 31C22 26.5817 25.5817 23 30 23H150C154.418 23 158 26.5817 158 31V105C158 109.418 154.418 113 150 113H30C25.5817 113 22 109.418 22 105V31Z" fill="white"/>
</clipPath>
</defs>
</svg>
