<svg width="180" height="120" viewBox="0 0 180 120" fill="none" xmlns="http://www.w3.org/2000/svg">
<path fill-rule="evenodd" clip-rule="evenodd" d="M125.792 26.5364L132.649 31.9801L134.237 40.5905C134.703 43.1235 137.935 43.9292 139.536 41.9119L144.98 35.0545L150 34.1292V89C150 93.4183 146.418 97 142 97H38C33.5817 97 30 93.4183 30 89V69.5268C30.4067 69.1235 30.7062 68.5893 30.8254 67.9424L31.6596 63.4167L35.2639 60.5555C37.2812 58.9541 36.4755 55.7225 33.9425 55.2556L30 54.5289V31C30 26.5817 33.5817 23 38 23H124.901C124.406 24.162 124.634 25.6176 125.792 26.5364ZM128.579 23L127.476 23.2033C126.632 23.359 126.363 24.4362 127.035 24.97L134.187 30.6468C134.376 30.7971 134.504 31.011 134.548 31.2488L136.203 40.2279C136.359 41.0723 137.436 41.3409 137.97 40.6684L143.647 33.5173C143.797 33.3279 144.011 33.1994 144.249 33.1556L150 32.0955V31C150 26.5817 146.418 23 142 23H128.579ZM30.1224 62.0835C30.0782 62.1186 30.0373 62.1572 30 62.1987V56.5625L33.58 57.2224C34.4243 57.3781 34.6929 58.4553 34.0204 58.9891L30.1224 62.0835Z" fill="url(#paint0_linear_8_1220)"/>
<path d="M137.97 40.6685C137.436 41.3409 136.359 41.0724 136.203 40.228L134.548 31.2488C134.504 31.0111 134.376 30.7972 134.187 30.6469L127.035 24.9701C126.363 24.4363 126.632 23.359 127.476 23.2034L136.455 21.5483C136.693 21.5045 136.907 21.376 137.057 21.1866L142.734 14.0355C143.268 13.3631 144.345 13.6316 144.501 14.476L146.156 23.4551C146.199 23.6929 146.328 23.9068 146.517 24.0571L153.668 29.7339C154.341 30.2677 154.072 31.345 153.228 31.5006L144.249 33.1557C144.011 33.1995 143.797 33.328 143.647 33.5174L137.97 40.6685Z" fill="url(#paint1_linear_8_1220)"/>
<path d="M28.8586 67.5799C28.7029 68.4242 27.6257 68.6928 27.0919 68.0203L23.9975 64.1223C23.8472 63.933 23.6334 63.8045 23.3956 63.7607L18.5012 62.8585C17.6568 62.7028 17.3882 61.6256 18.0607 61.0918L21.9587 57.9974C22.148 57.8471 22.2765 57.6333 22.3204 57.3955L23.2225 52.501C23.3782 51.6567 24.4554 51.3881 24.9892 52.0606L28.0836 55.9586C28.2339 56.1479 28.4477 56.2764 28.6855 56.3202L33.58 57.2224C34.4243 57.3781 34.6929 58.4553 34.0204 58.9891L30.1224 62.0835C29.9331 62.2338 29.8046 62.4476 29.7608 62.6854L28.8586 67.5799Z" fill="url(#paint2_linear_8_1220)"/>
<path d="M83.3333 52.5017C83.3333 51.0875 84.943 50.2064 86.2247 50.919L99.7128 58.4173C100.985 59.1243 100.985 60.8756 99.7128 61.5827L86.2247 69.0809C84.943 69.7935 83.3333 68.9124 83.3333 67.4982L83.3333 52.5017Z" fill="white"/>
<defs>
<linearGradient id="paint0_linear_8_1220" x1="157.5" y1="14" x2="20.5938" y2="22.1027" gradientUnits="userSpaceOnUse">
<stop stop-color="#FF9DFF"/>
<stop offset="1" stop-color="#B6D7FF"/>
</linearGradient>
<linearGradient id="paint1_linear_8_1220" x1="165.228" y1="13.6748" x2="126.935" y2="3.83094" gradientUnits="userSpaceOnUse">
<stop stop-color="#FF9DFF"/>
<stop offset="1" stop-color="#006EFA"/>
</linearGradient>
<linearGradient id="paint2_linear_8_1220" x1="36.0683" y1="44.7148" x2="11.2736" y2="50.7056" gradientUnits="userSpaceOnUse">
<stop offset="0.200152" stop-color="#FF9DFF"/>
<stop offset="1" stop-color="#006EFA"/>
</linearGradient>
</defs>
</svg>
